<svg width="163" height="46" viewBox="0 0 163 46" fill="none" xmlns="http://www.w3.org/2000/svg">
<g clip-path="url(#clip0_20_120)">
<path fill-rule="evenodd" clip-rule="evenodd" d="M53.8174 13.8686H59.563C60.4051 13.8686 61.1695 14.037 61.8496 14.3738C62.5298 14.7107 63.0674 15.1771 63.4561 15.773C63.8447 16.3754 64.0391 17.0491 64.0391 17.794C64.0391 18.2669 63.9484 18.7268 63.7605 19.1608C63.5792 19.5948 63.3006 19.9575 62.9379 20.2426C62.5686 20.5276 62.1282 20.6895 61.6229 20.7154V20.7543C62.2059 20.7672 62.7306 20.9227 63.1905 21.2207C63.6569 21.5251 64.0196 21.9203 64.2852 22.4126C64.5508 22.8984 64.6803 23.4166 64.6803 23.9672C64.6803 24.751 64.486 25.457 64.0974 26.0789C63.7022 26.7007 63.1646 27.193 62.478 27.5428C61.7978 27.8991 61.027 28.074 60.1784 28.074L53.8174 28.0869V13.8686ZM59.5825 19.815C59.9128 19.815 60.2108 19.7438 60.4829 19.5948C60.7549 19.4523 60.9687 19.2515 61.1241 18.9924C61.2796 18.7333 61.3573 18.4483 61.3573 18.1308C61.3573 17.807 61.2796 17.522 61.1241 17.2693C60.9687 17.0167 60.7484 16.8159 60.4569 16.6799C60.1719 16.5374 59.8416 16.4661 59.4723 16.4661H56.4926V19.815H59.5825ZM59.9646 25.4894C60.3468 25.4894 60.6966 25.4117 60.9946 25.2627C61.2926 25.1202 61.5322 24.9129 61.6942 24.6473C61.8691 24.3817 61.9468 24.0773 61.9468 23.734C61.9468 23.4101 61.8691 23.1186 61.7071 22.8595C61.5452 22.6004 61.3185 22.3931 61.0399 22.2441C60.7549 22.0887 60.4375 22.0109 60.0942 22.0109H56.4926V25.5024L59.9646 25.4894ZM69.7523 22.0628C69.7523 22.6846 69.6292 23.2935 69.3766 23.8959H69.4155L75.6599 14.6912C75.8672 14.3868 76.0809 14.173 76.2882 14.0499C76.4955 13.9269 76.7611 13.8686 77.0785 13.8686H79.1967V28.0869H76.5409L76.5214 19.2515C76.5214 18.6296 76.6315 18.0531 76.8583 17.5155H76.8L70.0244 27.491C69.7523 27.8861 69.4414 28.0869 69.0916 28.0869H67.09V13.8686H69.7458L69.7523 22.0628ZM82.7918 13.8686H88.4856C89.4119 13.8686 90.241 14.0629 90.973 14.458C91.705 14.8532 92.2815 15.3973 92.696 16.0904C93.1171 16.79 93.3244 17.5803 93.3244 18.4547C93.3244 19.3357 93.1106 20.1195 92.696 20.8126C92.2815 21.5057 91.705 22.0498 90.973 22.4449C90.241 22.8336 89.4119 23.0344 88.4856 23.0344H85.467V28.0869H82.7918V13.8686ZM88.4856 20.4887C88.9066 20.4887 89.2759 20.398 89.6062 20.2231C89.9301 20.0482 90.1827 19.8085 90.3706 19.4976C90.5519 19.1932 90.6491 18.8434 90.6491 18.4547C90.6491 18.0661 90.5519 17.7163 90.3706 17.4118C90.1827 17.1009 89.9301 16.8612 89.6062 16.6863C89.2759 16.5114 88.9066 16.4272 88.4856 16.4272H85.467V20.4887H88.4856ZM93.7389 13.8686H104.706V16.4272H100.566V28.0869H97.8911V16.4272H93.7389V13.8686ZM110.769 27.206C110.613 27.4392 110.458 27.6206 110.289 27.7501C110.127 27.8732 109.926 27.9574 109.7 28.0092C109.467 28.061 109.156 28.0869 108.773 28.0869H107.232L109.784 23.7081C109.894 23.5202 109.946 23.3065 109.946 23.0538C109.946 22.8725 109.92 22.6911 109.875 22.5032C109.823 22.3154 109.758 22.1534 109.674 22.0109L105.133 13.8686H107.29C107.698 13.8686 108.022 13.9334 108.255 14.0629C108.495 14.1925 108.689 14.4127 108.845 14.7301L111.507 19.5883C111.585 19.7308 111.637 19.8604 111.675 19.9705C111.721 20.0871 111.74 20.2037 111.74 20.3268C111.74 20.4628 111.714 20.5923 111.669 20.7284L115.018 14.7495C115.173 14.4257 115.368 14.1989 115.601 14.0694C115.834 13.9334 116.151 13.8686 116.56 13.8686H118.73L110.769 27.206ZM118.743 20.981C118.743 19.6207 119.066 18.3835 119.708 17.2693C120.355 16.1552 121.236 15.2807 122.357 14.6459C123.471 14.0046 124.715 13.6807 126.082 13.6807C127.448 13.6807 128.692 14.0046 129.819 14.6459C130.94 15.2807 131.827 16.1552 132.469 17.2693C133.116 18.3835 133.44 19.6207 133.44 20.981C133.44 22.3348 133.116 23.5656 132.469 24.6797C131.827 25.7939 130.94 26.6748 129.819 27.3161C128.692 27.9509 127.448 28.2748 126.082 28.2748C124.715 28.2748 123.471 27.9509 122.357 27.3161C121.236 26.6748 120.355 25.7939 119.708 24.6797C119.066 23.5656 118.743 22.3348 118.743 20.981ZM121.418 20.981C121.418 21.8555 121.625 22.6457 122.04 23.3648C122.448 24.0773 123.011 24.6473 123.724 25.0554C124.436 25.47 125.227 25.6773 126.095 25.6773C126.963 25.6773 127.753 25.47 128.472 25.0554C129.184 24.6473 129.742 24.0773 130.156 23.3648C130.564 22.6457 130.765 21.8555 130.765 20.981C130.765 20.1065 130.564 19.3033 130.156 18.5908C129.742 17.8717 129.184 17.3082 128.472 16.8936C127.759 16.4791 126.963 16.2782 126.095 16.2782C125.227 16.2782 124.436 16.4791 123.724 16.8936C123.011 17.3082 122.448 17.8782 122.04 18.5972C121.625 19.3163 121.418 20.113 121.418 20.981ZM142.062 20.547C142.638 20.6506 143.15 20.8644 143.591 21.1948C144.038 21.5186 144.387 21.9267 144.634 22.4126C144.886 22.8984 145.016 23.4295 145.016 23.9931C145.016 24.8157 144.796 25.5477 144.368 26.1955C143.934 26.8432 143.325 27.3485 142.548 27.7112C141.764 28.074 140.877 28.2554 139.873 28.2554C138.966 28.2554 138.072 28.061 137.184 27.6853C136.303 27.3032 135.578 26.8173 135.008 26.2214L135.63 25.2303C135.733 25.0878 135.856 24.9712 136.012 24.887C136.167 24.8093 136.336 24.7639 136.511 24.7639C136.737 24.7639 136.945 24.8287 137.139 24.9583C137.528 25.2174 137.955 25.4182 138.415 25.5477C138.868 25.6837 139.322 25.7485 139.762 25.7485C140.611 25.7485 141.278 25.5736 141.764 25.2238C142.25 24.874 142.496 24.3882 142.496 23.7793C142.496 23.3648 142.373 23.015 142.127 22.717C141.881 22.4255 141.537 22.2053 141.097 22.0498C140.663 21.9008 140.164 21.8231 139.594 21.8231H138.266V19.4458H139.588C140.268 19.4458 140.812 19.3098 141.226 19.0377C141.647 18.7592 141.855 18.377 141.855 17.8847C141.855 17.3211 141.66 16.9066 141.278 16.6345C140.89 16.3625 140.384 16.2264 139.775 16.2264C139.361 16.2264 138.953 16.2977 138.538 16.4467C138.13 16.5892 137.677 16.8159 137.184 17.1203C137.016 17.211 136.841 17.2564 136.66 17.2564C136.504 17.2564 136.355 17.2175 136.219 17.1333C136.077 17.0491 135.96 16.926 135.869 16.7511L135.312 15.7212C135.843 15.1123 136.543 14.62 137.405 14.2443C138.273 13.8686 139.16 13.6807 140.067 13.6807C140.883 13.6807 141.615 13.8427 142.256 14.1601C142.904 14.4839 143.416 14.9374 143.779 15.5268C144.148 16.1163 144.329 16.8029 144.329 17.5738C144.329 18.2993 144.122 18.9341 143.714 19.4717C143.299 20.0094 142.749 20.3656 142.062 20.547ZM150.094 13.8815V18.9341H153.119C154.039 18.9341 154.868 19.1284 155.6 19.5171C156.339 19.9122 156.909 20.4563 157.323 21.1494C157.744 21.8425 157.952 22.6328 157.952 23.5073C157.952 24.3882 157.744 25.172 157.323 25.8716C156.909 26.5647 156.339 27.1088 155.6 27.504C154.868 27.8991 154.039 28.0934 153.119 28.0934H147.419V13.8815H150.094ZM150.094 25.5412H153.119C153.534 25.5412 153.903 25.4506 154.233 25.2757C154.557 25.1008 154.816 24.8611 154.998 24.5502C155.186 24.2457 155.276 23.8959 155.276 23.5073C155.276 23.1186 155.186 22.7688 154.998 22.4644C154.816 22.1534 154.557 21.9138 154.233 21.7389C153.903 21.564 153.534 21.4798 153.119 21.4798H150.094V25.5412ZM159.843 28.0869V13.8815H162.518V28.0869H159.843Z" fill="black"/>
<path fill-rule="evenodd" clip-rule="evenodd" d="M56.2594 33.9686L54.2125 31.546H53.8174V36.6568H54.9056V33.8974L56.1882 35.4973H56.3242L57.6068 33.8974V36.6568H58.7015V31.546H58.3064L56.2594 33.9686ZM62.18 35.3743C61.9338 35.8925 61.6229 35.9702 61.1241 35.7629L60.9751 36.6504C62.2512 37.1297 62.7954 36.5921 63.2617 35.5556L65.1856 31.6691V31.559H64.0261L62.9897 33.8132H62.9573L61.7978 31.559H60.5994V31.7015L62.3937 34.9144L62.18 35.3743ZM67.7572 32.8156C67.7572 32.4788 68.1005 32.3233 68.4374 32.3233C68.7872 32.3233 69.1046 32.5371 69.1046 32.9257C69.1046 33.2496 68.8195 33.5152 68.4309 33.5152H68.0552V34.3832H68.4374C68.9491 34.3832 69.2989 34.7071 69.2989 35.1152C69.2989 35.5427 68.9685 35.8536 68.4374 35.8536C67.9645 35.8536 67.5823 35.5556 67.5823 35.0504H66.6042C66.6042 36.2099 67.3491 36.7605 68.4374 36.7605C69.6875 36.7605 70.4001 36.1127 70.4001 35.1799C70.4001 34.5451 70.0956 34.1435 69.5386 33.8909C69.8883 33.6771 70.1215 33.3144 70.1215 32.8998C70.1215 32.0966 69.4932 31.4618 68.4374 31.4618C67.5564 31.4618 66.7597 31.8764 66.7985 32.8156H67.7572ZM73.6195 31.559H72.5571V36.6568H74.7077C75.7765 36.6568 76.4048 35.9508 76.5085 35.1281C76.6251 34.1435 75.9903 33.146 74.7077 33.146H73.6195V31.6885C73.6195 31.6496 73.6195 31.6043 73.6195 31.559ZM74.7077 34.1111C75.2194 34.1111 75.5109 34.5387 75.4656 34.9986C75.4138 35.4844 75.0899 35.7046 74.5263 35.7046C74.2219 35.7046 73.9174 35.6982 73.6195 35.6982V34.1111H74.5976C74.6364 34.1111 74.6753 34.1111 74.7077 34.1111ZM78.3416 31.559H77.2534V36.6568H78.3416V31.559ZM81.8719 31.559H80.7837V36.6568H81.8719V34.6099C82.0922 34.6099 82.4744 34.6099 82.6687 34.5581L83.9513 36.6568H85.182V36.4949L83.6209 34.137C83.9383 33.8261 84.1132 33.3662 84.2622 32.7832C84.3723 32.401 84.5925 32.278 85.0006 32.3104V31.5719C83.88 31.3387 83.433 31.831 83.2581 32.4658C83.1221 33.0423 83.0185 33.4245 82.7529 33.5735C82.5456 33.6707 82.1829 33.6642 81.8719 33.6642V31.559ZM90.1827 35.8147L90.5779 36.6568H91.7114V36.5079L89.3795 31.5201H88.8807L86.5358 36.5079V36.6568H87.6694L88.0645 35.8147H90.1827ZM89.1269 33.2172L89.8329 34.8949H88.4208L89.1269 33.2172ZM95.2029 32.5371H96.5891V36.6568H97.6773V31.559C96.6344 31.559 95.3065 31.559 94.2507 31.559L93.8685 35.1605C93.8037 35.7176 93.6806 35.9119 93.0717 35.8471L93.0458 36.6374C94.3867 36.8253 94.8272 36.5208 94.9567 35.1929L95.2029 32.5371ZM101.182 31.559H100.119V36.6568H102.276C103.449 36.6568 104.09 35.8083 104.09 34.8949C104.09 33.9881 103.449 33.146 102.276 33.146H101.182V31.559ZM102.276 34.1111C102.749 34.1111 103.034 34.4674 103.041 34.8949C103.047 35.3225 102.756 35.6982 102.276 35.6982C101.914 35.7111 101.538 35.6982 101.182 35.6982V34.1111H102.276ZM110.244 36.6568V31.559H109.149V33.5087H107.199V31.559H106.118V36.6568H107.199V34.4998H109.149V36.6568H110.244ZM115.705 35.8147L116.1 36.6568H117.233V36.5079L114.901 31.5201H114.396L112.058 36.5079V36.6568H113.191L113.586 35.8147H115.705ZM114.649 33.2172L115.355 34.8949H113.943L114.649 33.2172ZM118.684 36.4949V36.6568H119.844L120.893 34.9662H121.8V36.6568H122.895V31.559H120.725C119.552 31.559 118.917 32.401 118.917 33.3014C118.924 33.9492 119.254 34.5127 119.831 34.8042L118.684 36.4949ZM120.725 34.0723C120.258 34.0723 119.973 33.716 119.973 33.282C119.973 32.848 120.258 32.5112 120.725 32.5112H121.813V34.0723H120.725ZM129.418 36.6568C131.529 36.6568 133.648 36.6568 135.766 36.6568V31.559H134.677V35.6658H133.129V31.559H132.041V35.6658H130.506V31.559H129.418V36.6568ZM139.296 31.559H138.214V36.6568H139.296V34.6099C139.523 34.6099 139.898 34.6099 140.093 34.5581L141.375 36.6568H142.606V36.4949L141.051 34.137C141.362 33.8261 141.537 33.3662 141.693 32.7832C141.796 32.401 142.017 32.278 142.425 32.3104V31.5719C141.304 31.3387 140.857 31.831 140.689 32.4658C140.546 33.0423 140.443 33.4245 140.177 33.5735C139.97 33.6707 139.607 33.6642 139.296 33.6642V31.559ZM149.323 34.1111C149.323 32.401 148.067 31.4812 146.732 31.4812C145.378 31.4812 144.122 32.3946 144.122 34.1111C144.122 35.8277 145.353 36.741 146.713 36.741C148.255 36.741 149.323 35.6593 149.323 34.1111ZM145.217 34.1111C145.217 33.0294 145.929 32.4853 146.732 32.4853C147.529 32.4853 148.242 33.0229 148.242 34.1111C148.242 35.2253 147.516 35.75 146.726 35.75C145.91 35.75 145.217 35.2253 145.217 34.1111ZM153.054 32.5371H154.447V36.6568H155.529V31.559C154.492 31.559 153.158 31.559 152.102 31.559L151.727 35.1605C151.662 35.7176 151.539 35.9119 150.923 35.8471L150.904 36.6374C152.245 36.8253 152.685 36.5208 152.808 35.1929L153.054 32.5371ZM160.99 35.8147L161.391 36.6568H162.518V36.5079L160.186 31.5201H159.688L157.343 36.5079V36.6568H158.476L158.871 35.8147H160.99ZM159.934 33.2172L160.64 34.8949H159.228L159.934 33.2172Z" fill="black"/>
<path fill-rule="evenodd" clip-rule="evenodd" d="M26.2616 45.0713C25.6786 45.0972 25.1021 45.1166 24.5386 45.1166H12.0044L9.64651 36.2811L9.54935 35.8989L9.44571 35.5168L9.34207 35.1411L9.2449 34.7589L9.14126 34.3767L9.0441 34.001L8.94045 33.6188L8.83681 33.2366L8.73965 32.8545L8.63601 32.4788L8.53236 32.0966L8.4352 31.7144L8.33156 31.3387L8.22792 30.9565L8.13075 30.5743L8.02711 30.1922L7.92347 29.8165L7.8263 29.4343L7.72266 29.0521L7.61902 28.6699L7.52186 28.2942L7.41821 27.912L7.31457 27.5299L7.21741 27.1542L7.11377 26.772L7.01012 26.3898L6.91296 26.0141L6.80932 25.6319L6.70568 25.2497L6.60851 24.8676L6.50487 24.4919L6.40123 24.1097L6.30406 23.7275L6.20042 23.3453L6.09678 22.9696L5.99962 22.5874L5.89597 22.2053L5.79233 21.8296L5.69517 21.4474L5.59153 21.0652L5.48788 20.683L5.39072 20.3073L5.28708 19.9251L5.18991 19.543L5.08627 19.1673L4.98263 18.7851L4.88547 18.4029L4.78182 18.0207L4.67818 17.645L4.58102 17.2628L4.47738 16.8807L4.37373 16.505L4.27657 16.1228L4.17293 15.7406L4.06929 15.3584L3.97212 14.9827L3.86848 14.6005L3.76484 14.2184L3.66767 13.8427L3.56403 13.4605L3.46039 13.0783L3.36323 12.6961L3.25958 12.3204L3.15594 11.9382L3.05878 11.5561L2.95514 11.1739L2.85149 10.7982L2.75433 10.416L2.65069 10.0338L2.54705 9.65813L2.44988 9.27595L2.34624 8.89377L2.2426 8.51159L2.14543 8.13589L2.04179 7.75371L1.93815 7.37153L1.84099 6.99583L1.73734 6.61365L1.6337 6.23147L1.53654 5.84929L1.4329 5.47359L1.32925 5.09141L1.23209 4.70923L1.12845 4.33353L1.03128 3.95135L0.927642 3.56917L0.824 3.18699L0.726836 2.81129L0.623194 2.42911L0.519552 2.04693L0.422388 1.66475L0.318746 1.28905L0.215104 0.906866L0.11794 0.524687L0.014298 0.148985L0.00134277 0.0971642V0H0.357612H0.972985H1.58836H2.21021H2.82558H3.44096H4.06281H4.67818H5.29356H5.91541H6.53078H7.14615H7.768H8.38338H8.99875H9.6206H10.236H10.8513H11.4732H12.0886H12.7039H13.3258H13.9412H14.5565H15.1784H15.7938H16.4091H17.031H17.6464H18.2617H18.8836H19.499H20.1143H20.6326L20.7168 0.317403L20.8139 0.699583L20.9176 1.07528L21.0147 1.45746L21.1119 1.83317L21.2155 2.21534L21.3127 2.59105L21.4099 2.97323L21.5135 3.34893L21.6107 3.73111L21.7078 4.10681L21.8115 4.48899L21.9086 4.86469L22.0058 5.24687L22.1094 5.62905L22.2066 6.00475L22.3038 6.38693L22.4074 6.76263L22.5046 7.14481L22.6017 7.52051L22.6989 7.90269L22.8026 8.27839L22.8997 8.66057L22.9969 9.03627L23.1005 9.41845L23.1977 9.80063L23.2949 10.1763L23.3985 10.5585L23.4957 10.9342L23.5928 11.3164L23.6965 11.6921L23.7936 12.0743L23.8908 12.45L23.9944 12.8322L24.0916 13.2079L24.1888 13.59L24.2924 13.9657L24.3896 14.3479L24.4867 14.7301L24.5839 15.1058L24.6875 15.488L24.7847 15.8637L24.8819 16.2459L24.9855 16.6216L25.0827 17.0037L25.1798 17.3794L25.2835 17.7616L25.3806 18.1373L25.4778 18.5195L25.5814 18.8952L25.6786 19.2774L25.7758 19.6596L25.8794 20.0353L25.9766 20.4174L26.0737 20.7931L26.1709 21.1753L26.2746 21.551L26.3717 21.9332L26.4689 22.3089L26.5725 22.6911L26.6697 23.0668L26.7669 23.449L26.8705 23.8247L26.9677 24.2069L27.0648 24.589L27.1685 24.9647L27.2656 25.3469L27.3628 25.7226L27.4664 26.1048L27.5636 26.4805L27.6608 26.8627L27.7644 27.2384L27.8097 27.4327C27.583 27.3485 27.3434 27.2708 27.0907 27.2125C26.7928 27.1347 26.4754 27.0829 26.1515 27.044C25.9183 27.0181 25.6786 26.9987 25.4325 26.9858C25.2317 26.9793 25.0244 26.9793 24.8106 26.9858C24.6292 26.9922 24.4479 27.0052 24.26 27.0181C24.0916 27.0376 23.9167 27.057 23.7483 27.0764C23.5928 27.0959 23.4309 27.1218 23.2754 27.1542C23.1264 27.1801 22.9774 27.2125 22.8285 27.2449C22.7119 27.2708 22.6017 27.2967 22.4851 27.3291L22.4074 27.3485C22.2714 27.3809 22.1354 27.4198 22.0058 27.4586C21.8763 27.504 21.7467 27.5428 21.6236 27.5882C21.5006 27.627 21.3775 27.6724 21.2609 27.7177C21.1378 27.7631 21.0212 27.8149 20.9111 27.8602C20.7945 27.912 20.6844 27.9639 20.5743 28.0157C20.4706 28.061 20.3605 28.1129 20.2568 28.1712C20.1532 28.223 20.0496 28.2813 19.9524 28.3331C19.8488 28.3914 19.7516 28.4497 19.6609 28.508C19.5637 28.5663 19.4731 28.6246 19.3759 28.6894C19.2852 28.7477 19.201 28.806 19.1103 28.8707C19.0261 28.9355 18.9419 29.0003 18.8577 29.0651C18.7735 29.1298 18.6957 29.1946 18.6115 29.2594C18.5338 29.3306 18.4561 29.3954 18.3848 29.4667C18.3071 29.5379 18.2358 29.6092 18.1646 29.6804C18.0933 29.7517 18.0285 29.8229 17.9638 29.8942C17.899 29.9719 17.8342 30.0497 17.7694 30.1209C17.7111 30.1986 17.6528 30.2764 17.5945 30.3541C17.5362 30.4383 17.4844 30.5161 17.4326 30.5938C17.3808 30.678 17.329 30.7622 17.2836 30.8464C17.2383 30.9306 17.1929 31.0148 17.1541 31.1055C17.1152 31.1897 17.0763 31.2804 17.044 31.3711C17.0116 31.4618 16.9792 31.5589 16.9533 31.6496C16.9274 31.7468 16.9079 31.844 16.8885 31.9411C16.8691 32.0448 16.8561 32.1484 16.8496 32.2521C16.8431 32.3557 16.8431 32.4658 16.8431 32.5759C16.8496 32.6925 16.8626 32.8091 16.8885 32.9192C16.895 32.984 16.9144 33.0488 16.9274 33.1136C16.9468 33.1784 16.9597 33.2366 16.9857 33.3014C17.031 33.4439 17.0958 33.5864 17.167 33.7225C17.2707 33.9103 17.3937 34.0787 17.5362 34.2407V34.2472C18.1257 34.9208 19.0585 35.4067 20.1921 35.6528C20.4706 35.7111 20.7686 35.7564 21.0666 35.7888C21.2933 35.8083 21.5265 35.8212 21.7661 35.8277C21.9605 35.8342 22.1677 35.8342 22.3686 35.8212C22.5499 35.8147 22.7313 35.8018 22.9127 35.7824C23.0811 35.7694 23.2495 35.75 23.4179 35.7241C23.5734 35.7046 23.7289 35.6722 23.8843 35.6463C24.0333 35.6204 24.1823 35.588 24.3313 35.5492C24.4155 35.5297 24.5062 35.5103 24.5904 35.4909L24.7458 35.4455C24.8819 35.4067 25.0114 35.3678 25.141 35.3289C25.2705 35.2901 25.4001 35.2447 25.5232 35.2058C25.6462 35.1605 25.7628 35.1152 25.8859 35.0698C26.0025 35.0245 26.1191 34.9726 26.2292 34.9208C26.3393 34.8755 26.4494 34.8237 26.5596 34.7718C26.6697 34.72 26.7733 34.6682 26.877 34.6099C26.9806 34.5581 27.0843 34.5063 27.1814 34.448C27.2786 34.3897 27.3757 34.3314 27.4729 34.2731C27.5636 34.2148 27.6543 34.1565 27.745 34.0917C27.8357 34.0334 27.9263 33.9686 28.0106 33.9038C28.1012 33.8455 28.1855 33.7808 28.2632 33.716C28.3474 33.6512 28.4251 33.58 28.5029 33.5152C28.5806 33.4439 28.6583 33.3792 28.7296 33.3079C28.8073 33.2366 28.8786 33.1654 28.9498 33.0941C29.0146 33.0229 29.0858 32.9516 29.1506 32.8739C29.2154 32.8027 29.2802 32.7249 29.3385 32.6472C29.3968 32.5695 29.4551 32.4917 29.5134 32.414C29.5717 32.3363 29.6235 32.2521 29.6753 32.1743C29.7206 32.0901 29.7725 32.0059 29.8178 31.9217C29.8632 31.8375 29.902 31.7468 29.9409 31.6626C29.9798 31.5719 30.0186 31.4812 30.051 31.3905C30.0834 31.2998 30.1093 31.2027 30.1352 31.112C30.1611 31.0083 30.1806 30.9112 30.1935 30.814C30.2129 30.7104 30.2259 30.6067 30.2259 30.5031C30.2324 30.393 30.2324 30.2829 30.2259 30.1792C30.2194 30.0561 30.2 29.9395 30.1741 29.8229C30.1676 29.7841 30.1611 29.7387 30.1482 29.6999L30.0769 29.4472L29.9798 29.0651L29.8761 28.6829L29.7725 28.3007L29.6688 27.925L29.5652 27.5428L29.468 27.1606L29.3644 26.7785L29.2607 26.4028L29.1571 26.0206L29.0599 25.6384L28.9563 25.2562L28.8526 24.8805L28.7555 24.4983L28.6518 24.1162L28.5482 23.734L28.451 23.3583L28.3474 22.9761L28.2502 22.5939L28.1466 22.2182L28.0429 21.836L27.9458 21.4539L27.8421 21.0782L27.745 20.696L27.6413 20.3138L27.5442 19.9381L27.4405 19.5559L27.3434 19.1737L27.2397 18.798L27.1426 18.4159L27.0389 18.0402L26.9417 17.658L26.8381 17.2758L26.7409 16.9001L26.6373 16.5179L26.5401 16.1422L26.443 15.76L26.3393 15.3779L26.2422 15.0022L26.145 14.62L26.0414 14.2443L25.9442 13.8621L25.847 13.4864L25.7434 13.1042L25.6462 12.7285L25.5491 12.3463L25.4519 11.9706L25.3547 11.5885L25.2576 11.2257L25.2511 11.2128C25.2187 11.0832 25.1928 10.9601 25.1669 10.8371C25.141 10.714 25.1151 10.5909 25.0956 10.4743C25.0697 10.3512 25.0503 10.2346 25.0373 10.118C25.0179 10.0014 25.0049 9.88484 24.992 9.76825C24.9855 9.65165 24.979 9.54153 24.9726 9.43141C24.9661 9.31481 24.9596 9.20469 24.9596 9.09457C24.9596 8.98445 24.9596 8.87433 24.9596 8.77069C24.9661 8.66057 24.9726 8.55693 24.979 8.45329C24.9855 8.34965 24.9985 8.24601 25.0114 8.14236C25.0244 8.03872 25.0373 7.94156 25.0568 7.83792C25.0762 7.74075 25.0892 7.64359 25.1151 7.54642C25.1345 7.44926 25.1604 7.35209 25.1863 7.25493C25.2122 7.16424 25.2446 7.06708 25.2705 6.97639C25.3029 6.88571 25.3353 6.78854 25.3742 6.70433C25.4066 6.61365 25.4454 6.52296 25.4843 6.43227C25.5296 6.34806 25.5685 6.26385 25.6138 6.17317C25.6592 6.08896 25.7045 6.00475 25.7563 5.92702C25.8082 5.84281 25.86 5.7586 25.9118 5.68087C25.9701 5.60314 26.0284 5.51893 26.0867 5.44768C26.145 5.36994 26.2098 5.29221 26.2746 5.21448C26.3393 5.14323 26.4106 5.07197 26.4754 5.00072C26.5531 4.92947 26.6243 4.85821 26.7021 4.78696C26.7733 4.72218 26.8575 4.65093 26.9417 4.58615C27.026 4.52138 27.1102 4.4566 27.1944 4.3983C27.2851 4.33353 27.3822 4.27523 27.4794 4.22341C27.5766 4.16511 27.6802 4.10681 27.7838 4.05499C29.5976 3.13517 32.0979 3.19994 34.689 4.5732C37.0727 5.66144 38.6338 7.76018 39.2687 10.131C39.3075 10.2605 39.3334 10.3836 39.3658 10.5067C39.3917 10.6298 39.4176 10.7528 39.4371 10.8759C39.4565 10.9925 39.4759 11.1156 39.4954 11.2322C39.5148 11.3488 39.5278 11.4654 39.5407 11.582V11.6079C39.5537 11.7115 39.5601 11.8216 39.5666 11.9253C39.5796 12.0354 39.5796 12.1455 39.5861 12.2556C39.5861 12.3658 39.5861 12.4759 39.5796 12.586C39.5796 12.6897 39.5731 12.7998 39.5666 12.9034C39.5601 13.0071 39.5472 13.1107 39.5342 13.2143C39.5213 13.318 39.5083 13.4151 39.4889 13.5188C39.4759 13.6159 39.4565 13.7131 39.4306 13.8103C39.4112 13.9074 39.3853 14.0046 39.3593 14.1018C39.3334 14.1925 39.301 14.2896 39.2751 14.3803C39.2427 14.471 39.2104 14.5682 39.1715 14.6524C39.1391 14.7431 39.1002 14.8337 39.0614 14.9244C39.0225 15.0086 38.9836 15.0993 38.9383 15.1835C38.893 15.2677 38.8476 15.352 38.8023 15.4362C38.7504 15.5204 38.7051 15.6046 38.6533 15.6888C38.6015 15.7665 38.5496 15.8507 38.4913 15.9285C38.433 16.0062 38.3812 16.0839 38.3164 16.1617C38.2581 16.2394 38.1998 16.3171 38.1351 16.3948C38.0703 16.4661 38.0055 16.5438 37.9407 16.6151C37.876 16.6928 37.8047 16.7641 37.7335 16.8353C37.6622 16.9066 37.591 16.9778 37.5197 17.0491C37.4484 17.1203 37.3707 17.1851 37.293 17.2564C37.2152 17.3211 37.1375 17.3859 37.0533 17.4572C36.9756 17.522 36.8914 17.5867 36.8072 17.6515C36.7229 17.7163 36.6387 17.7811 36.5545 17.8458C36.4638 17.9041 36.3796 17.9689 36.2889 18.0272C36.1983 18.092 36.1076 18.1503 36.0104 18.2086C35.9197 18.2669 35.8226 18.3317 35.7254 18.3835C35.6347 18.4418 35.5375 18.5001 35.4339 18.5584C35.3367 18.6167 35.2396 18.6685 35.1359 18.7268C35.0323 18.7786 34.9286 18.8369 34.825 18.8887C34.7214 18.9405 34.6112 18.9924 34.5076 19.0442C34.3975 19.096 34.2874 19.1478 34.1772 19.1997C34.0671 19.2515 33.957 19.3033 33.8469 19.3486C33.7303 19.4005 33.6202 19.4458 33.5036 19.4976C33.4258 19.53 33.3546 19.5559 33.2769 19.5883C33.4258 19.5948 33.5748 19.6077 33.7303 19.6142C33.9764 19.6337 34.2291 19.6531 34.4752 19.6855C34.7602 19.7179 35.0452 19.7567 35.3238 19.8021C35.6671 19.8668 36.0039 19.9316 36.3343 20.0158C36.8331 20.1389 37.3124 20.2814 37.7788 20.4498C38.9512 20.8774 40.0265 21.4474 40.9787 22.147C41.3544 22.4255 41.7172 22.7235 42.054 23.0409C42.2807 23.2546 42.501 23.4814 42.7147 23.7146C42.8832 23.9024 43.0451 24.1032 43.2006 24.304C43.3366 24.4724 43.4661 24.6538 43.5892 24.8352C43.6993 24.9971 43.8095 25.1591 43.9066 25.3275C44.0038 25.4829 44.088 25.6384 44.1787 25.7939C44.2564 25.9429 44.3277 26.0918 44.4054 26.2408C44.4702 26.3833 44.535 26.5258 44.5997 26.6748C44.658 26.8109 44.7099 26.9469 44.7617 27.0894C44.8135 27.2189 44.8588 27.355 44.9042 27.491C44.9495 27.6206 44.9884 27.7501 45.0273 27.8797C45.0661 28.0092 45.0985 28.1323 45.1309 28.2618C45.1633 28.3849 45.1957 28.508 45.2216 28.6375C45.2475 28.7541 45.2734 28.8772 45.2928 29.0003C45.3187 29.1169 45.3382 29.24 45.3511 29.3566C45.3706 29.4732 45.39 29.5962 45.403 29.7128C45.4159 29.8229 45.4289 29.9395 45.4353 30.0561C45.4483 30.1663 45.4548 30.2829 45.4613 30.3995C45.4677 30.5096 45.4742 30.6197 45.4807 30.7298C45.4807 30.8399 45.4872 30.9501 45.4872 31.0602C45.4872 31.1703 45.4872 31.2804 45.4872 31.3905C45.4807 31.4942 45.4807 31.6043 45.4742 31.7079C45.4677 31.8181 45.4677 31.9217 45.4548 32.0253C45.4483 32.129 45.4418 32.2391 45.4353 32.3427C45.4224 32.4464 45.4094 32.55 45.403 32.6537C45.39 32.7508 45.377 32.8545 45.3641 32.9581C45.3576 33.0035 45.3511 33.0553 45.3447 33.1006C45.3382 33.1589 45.3252 33.2107 45.3187 33.2626C45.2993 33.3597 45.2864 33.4634 45.2669 33.5605C45.2475 33.6577 45.2281 33.7549 45.2021 33.852C45.1827 33.9492 45.1568 34.0464 45.1374 34.1435C45.1115 34.2407 45.0856 34.3378 45.0596 34.4285C45.0337 34.5257 45.0013 34.6164 44.9754 34.7135C44.943 34.8042 44.9107 34.9014 44.8783 34.9921C44.8524 35.0828 44.8135 35.1735 44.7811 35.2641C44.7487 35.3548 44.7099 35.4455 44.671 35.5362C44.6321 35.6204 44.5997 35.7111 44.5544 35.8018C44.5155 35.886 44.4767 35.9767 44.4378 36.0609C44.3924 36.1451 44.3536 36.2358 44.3082 36.32C44.2629 36.4042 44.2176 36.4884 44.1657 36.5726C44.1204 36.6568 44.075 36.741 44.0232 36.8252C43.9779 36.9095 43.9261 36.9872 43.8742 37.0714C43.8224 37.1556 43.7706 37.2333 43.7188 37.3175C43.6605 37.3953 43.6087 37.473 43.5504 37.5507C43.4985 37.6349 43.4402 37.7127 43.3819 37.7904C43.3236 37.8681 43.2653 37.9459 43.2006 38.0236C43.1423 38.1013 43.0775 38.1726 43.0192 38.2503C42.9544 38.3281 42.8896 38.4058 42.8249 38.477C42.7601 38.5548 42.6953 38.626 42.6305 38.6973C42.5593 38.775 42.4945 38.8463 42.4233 38.9175C42.352 38.9888 42.2872 39.06 42.216 39.1313C42.1447 39.2025 42.067 39.2738 41.9957 39.345C41.9245 39.4163 41.8467 39.4811 41.7755 39.5523C41.6978 39.6236 41.62 39.6884 41.5423 39.7596C41.4646 39.8244 41.3868 39.8956 41.3091 39.9604C41.2249 40.0252 41.1472 40.09 41.063 40.1612C40.9852 40.226 40.901 40.2908 40.8168 40.3555C40.7326 40.4203 40.6484 40.4851 40.5642 40.5434C40.4735 40.6082 40.3893 40.673 40.2986 40.7313C40.2144 40.796 40.1237 40.8608 40.033 40.9191C39.9423 40.9774 39.8516 41.0422 39.761 41.1005C39.6638 41.1588 39.5731 41.2235 39.4759 41.2818C39.3853 41.3401 39.2881 41.3984 39.1909 41.4567C39.0938 41.515 38.9966 41.5733 38.8994 41.6252C38.8023 41.6835 38.6986 41.7418 38.6015 41.7936C38.4978 41.8519 38.4007 41.9037 38.297 41.962C38.1934 42.0138 38.0897 42.0721 37.9861 42.1239C37.8824 42.1758 37.7723 42.2276 37.6687 42.2794C37.5586 42.3377 37.4549 42.3895 37.3448 42.4349C37.2347 42.4867 37.1246 42.5385 37.0144 42.5903C36.9043 42.6421 36.7877 42.6875 36.6776 42.7393C36.561 42.7847 36.4509 42.8365 36.3343 42.8818C36.2177 42.9336 36.1011 42.979 35.9845 43.0243C35.8679 43.0697 35.7448 43.115 35.6282 43.1604C35.5052 43.2057 35.3821 43.251 35.2655 43.2964C35.1424 43.3417 35.0193 43.3871 34.8898 43.4259C34.7667 43.4713 34.6436 43.5101 34.5141 43.5555C34.391 43.5944 34.2615 43.6397 34.1319 43.6786C34.0023 43.7174 33.8728 43.7563 33.7368 43.7952C33.6072 43.834 33.4712 43.8729 33.3416 43.9118C33.2056 43.9506 33.0696 43.9895 32.9335 44.0219C32.7975 44.0607 32.655 44.0996 32.519 44.132C32.3765 44.1644 32.234 44.2033 32.0979 44.2356C31.9554 44.268 31.8064 44.3004 31.6639 44.3328C31.5214 44.3652 31.3724 44.3976 31.2235 44.43C31.0745 44.4559 30.9255 44.4883 30.7765 44.5142C30.6275 44.5466 30.472 44.5725 30.3166 44.5984C30.1611 44.6308 30.0057 44.6567 29.8502 44.6826C29.6947 44.7085 29.5328 44.7344 29.3773 44.7538C29.2089 44.7798 29.047 44.7992 28.885 44.8251C28.7231 44.8445 28.5547 44.864 28.3863 44.8834C28.2178 44.9093 28.0494 44.9223 27.8745 44.9417C27.6996 44.9611 27.5247 44.9741 27.3498 44.9935C27.1749 45.0065 26.9936 45.0194 26.8122 45.0324C26.6308 45.0453 26.443 45.0583 26.2616 45.0713Z" fill="url(#paint0_linear_20_120)"/>
</g>
<defs>
<linearGradient id="paint0_linear_20_120" x1="6.79338" y1="38.6388" x2="38.6938" y2="6.47721" gradientUnits="userSpaceOnUse">
<stop stop-color="#FF1900"/>
<stop offset="1" stop-color="#FFB226"/>
</linearGradient>
<clipPath id="clip0_20_120">
<rect width="162.52" height="45.1166" fill="white"/>
</clipPath>
</defs>
</svg>
