<?xml version="1.0" encoding="UTF-8"?>
<!DOCTYPE svg PUBLIC "-//W3C//DTD SVG 1.1//EN" "http://www.w3.org/Graphics/SVG/1.1/DTD/svg11.dtd">
<!-- Creator: CorelDRAW X7 -->
<svg xmlns="http://www.w3.org/2000/svg" xml:space="preserve" width="59.2481mm" height="59.1466mm" version="1.1" style="shape-rendering:geometricPrecision; text-rendering:geometricPrecision; image-rendering:optimizeQuality; fill-rule:evenodd; clip-rule:evenodd"
viewBox="0 0 40724 40654"
 xmlns:xlink="http://www.w3.org/1999/xlink">
 <defs>
  <style type="text/css">
   <![CDATA[
    .fil0 {fill:#FEFEFE}
    .fil1 {fill:black;fill-rule:nonzero}
    .fil4 {fill:#4299D5;fill-rule:nonzero}
    .fil2 {fill:#AFCA11;fill-rule:nonzero}
    .fil3 {fill:#F5E724;fill-rule:nonzero}
   ]]>
  </style>
 </defs>
 <g id="Слой_x0020_1">
  <metadata id="CorelCorpID_0Corel-Layer"/>
  <rect class="fil0" width="40724" height="40654"/>
  <g id="_2256164738880">
   <path class="fil1" d="M19759 34808l0 -575 -4722 0c-317,0 -574,258 -574,575 0,318 257,575 574,575l5296 0c-317,0 -574,-257 -574,-575z"/>
   <path class="fil1" d="M20333 35383l5332 0c318,0 575,-257 575,-575 0,-317 -257,-575 -575,-575l-4757 0 0 575c0,318 -257,575 -575,575z"/>
   <path class="fil2" d="M23611 11612l-1418 1418c-99,99 -229,148 -359,148 -130,0 -260,-49 -359,-148 -198,-198 -198,-520 0,-718l1419 -1417c198,-198 518,-198 717,0 197,198 197,519 0,717zm-3610 1418c-99,99 -229,148 -359,148 -129,0 -260,-49 -359,-148 -197,-198 -197,-520 0,-718l1418 -1417c199,-198 520,-198 718,0 198,198 198,519 0,717l-1418 1418zm-2548 148c-130,0 -260,-49 -359,-148 -198,-198 -198,-520 0,-718l1418 -1417c198,-198 519,-198 717,0 198,198 198,519 0,717l-1418 1418c-99,99 -229,148 -358,148zm2899 -4290c-2613,0 -4739,2126 -4739,4739l0 1988 37 25c609,423 2282,1407 4668,1407 2386,0 4058,-984 4667,-1407l105 -73 0 -1940c0,-2613 -2125,-4739 -4738,-4739z"/>
   <path class="fil2" d="M21595 25355c1600,-621 2409,-1836 2664,-2258 -298,2536 -1992,4089 -3385,3961 -1009,-92 -1695,-1053 -1913,-1390 507,66 1507,125 2634,-313zm-1243 5203c2613,0 4738,-2126 4738,-4739l0 -4526c-1128,561 -2745,1107 -4772,1107 -1987,0 -3580,-525 -4705,-1074l0 4493c0,2613 2126,4739 4739,4739z"/>
   <path class="fil1" d="M15613 15615l0 -1988c0,-2613 2126,-4739 4738,-4739 2613,0 4739,2126 4739,4739l0 1940 1149 -799 0 -1141c0,-3247 -2641,-5888 -5888,-5888 -3246,0 -5888,2641 -5888,5888l0 1189 1150 799z"/>
   <path class="fil1" d="M25090 21292l0 4527c0,2613 -2126,4738 -4739,4738 -2612,0 -4738,-2125 -4738,-4738l0 -4494c-466,-227 -850,-458 -1149,-659l0 5153c0,3046 2325,5560 5295,5858l0 -228c0,-317 257,-574 574,-574 318,0 575,257 575,574l0 231c2987,-282 5332,-2802 5332,-5861l0 -5198c-295,201 -679,437 -1150,671z"/>
   <path class="fil3" d="M28779 13261l0 12904c2351,-389 4179,-3134 4179,-6452 0,-3318 -1828,-6063 -4179,-6452z"/>
   <path class="fil1" d="M28779 26165l0 -12904c2351,389 4179,3134 4179,6452 0,3318 -1828,6063 -4179,6452zm-66 -14070c4,37 6,60 6,65l3 52c0,120 9,239 18,365 8,94 15,185 18,276 11,295 18,594 18,888l-1147 1 0 13619 575 0c3255,0 5904,-3431 5904,-7648 0,-3995 -2377,-7282 -5395,-7618z"/>
   <path class="fil3" d="M7744 19716c0,3318 1828,6063 4180,6452l0 -12427 0 -477c-2352,390 -4180,3134 -4180,6452z"/>
   <path class="fil1" d="M11924 13741l0 12427c-2352,-389 -4180,-3134 -4180,-6452 0,-3318 1828,-6063 4180,-6452l0 477c0,-294 6,-592 17,-888 4,-90 11,-182 18,-277 10,-125 18,-244 18,-363l3 -53c0,-4 2,-27 6,-61 -3005,336 -5373,3598 -5391,7571l0 90c18,4197 2659,7604 5904,7604l574 0 0 -13622 -1149 -1z"/>
   <path class="fil4" d="M20317 18196l0 0c-2876,0 -4804,-1251 -5323,-1612l0 3054c519,361 2447,1612 5323,1612 2876,0 4803,-1250 5323,-1611 0,-1019 0,-2037 0,-3055 -519,360 -2446,1612 -5323,1612z"/>
   <path class="fil1" d="M25640 19639c-519,360 -2447,1611 -5322,1611 -2877,0 -4804,-1251 -5324,-1612l0 -3054c520,360 2447,1611 5323,1611l1 0c2876,0 4804,-1251 5323,-1612 -1,1019 -1,2037 -1,3056zm-550 -4072l-105 73c-609,423 -2281,1406 -4667,1406 -2386,0 -4059,-983 -4668,-1406l-37 -26 -1149 -799 -619 -430 0 2199 0 3054 0 601 494 343c38,27 82,56 125,84 299,201 683,432 1149,659 1125,550 2718,1074 4705,1074 2027,0 3644,-545 4772,-1107 471,-234 855,-470 1149,-671 19,-13 40,-26 57,-39l494 -342 0 -601 0 -254 0 -2802 0 -2198 -551 383 -1149 799z"/>
   <path class="fil1" d="M20874 27058c1393,128 3086,-1425 3385,-3961 -255,421 -1064,1637 -2664,2258 -1127,438 -2127,379 -2634,313 218,337 904,1298 1913,1390z"/>
   <path class="fil1" d="M28776 13741c0,-294 -6,-592 -18,-888 -3,-90 -10,-182 -17,-275 -10,-127 -19,-246 -19,-365l-2 -53c-1,-4 -3,-28 -7,-65 -18,-178 -77,-694 -184,-1165 -172,-754 -809,-2350 -2104,-3545 -2076,-1915 -4937,-2172 -6074,-2194l22 1149c-7,1 -16,1 -23,1 1018,22 3520,251 5295,1889 1091,1006 1631,2373 1763,2955 100,437 153,943 165,1056 1,153 12,297 22,424 6,80 12,157 15,233 11,281 16,564 16,844l3 0 1147 -1z"/>
   <path class="fil1" d="M20333 5191c-1146,24 -3990,287 -6058,2194 -1296,1196 -1932,2791 -2104,3545 -108,475 -167,993 -184,1168 -4,35 -6,57 -7,62l-2 52c0,120 -9,239 -19,364 -7,94 -14,186 -17,277 -12,295 -18,594 -18,888l1149 1c0,-280 6,-564 17,-844 3,-77 9,-155 15,-235 10,-126 21,-269 22,-422 12,-113 65,-619 165,-1056 133,-582 671,-1949 1763,-2955 1775,-1638 4278,-1868 5295,-1889 7,0 16,-1 23,-1l-22 -1149 -18 0z"/>
   <path class="fil1" d="M22893 10894l-1418 1418c-198,198 -198,519 0,717 99,99 229,149 359,149 129,0 259,-50 358,-149l1418 -1418c198,-197 198,-518 0,-717 -198,-197 -519,-197 -717,0z"/>
   <path class="fil1" d="M21418 10894c-198,-197 -519,-197 -717,0l-1418 1418c-198,198 -198,520 0,717 99,99 229,149 359,149 130,0 259,-50 358,-149l1418 -1418c198,-197 198,-518 0,-717z"/>
   <path class="fil1" d="M19229 10894c-198,-197 -519,-197 -717,0l-1418 1418c-199,198 -199,520 0,717 99,99 229,149 358,149 130,0 260,-50 359,-149l1418 -1418c198,-197 198,-518 0,-717z"/>
   <path class="fil1" d="M20333 30875c-317,0 -574,257 -574,574l0 228 0 2556 0 575c0,318 257,575 574,575 318,0 575,-257 575,-575l0 -575 0 -2553 0 -231c0,-317 -257,-574 -575,-574z"/>
  </g>
 </g>
</svg>
